<svg xmlns="http://www.w3.org/2000/svg">
    <symbol id="load" viewBox="0 -960 960 960">
        <path
            d="M480-80q-82 0-155-31.5t-127.5-86Q143-252 111.5-325T80-480q0-83 31.5-155.5t86-127Q252-817 325-848.5T480-880q17 0 28.5 11.5T520-840q0 17-11.5 28.5T480-800q-133 0-226.5 93.5T160-480q0 133 93.5 226.5T480-160q133 0 226.5-93.5T800-480q0-17 11.5-28.5T840-520q17 0 28.5 11.5T880-480q0 82-31.5 155t-86 127.5q-54.5 54.5-127 86T480-80Z" />
    </symbol>
    <symbol id="save" viewBox="0 -960 960 960">
        <path d="M840-680v480q0 33-23.5 56.5T760-120H200q-33 0-56.5-23.5T120-200v-560q0-33 23.5-56.5T200-840h480l160 160Zm-80 34L646-760H200v560h560v-446ZM480-240q50 0 85-35t35-85q0-50-35-85t-85-35q-50 0-85 35t-35 85q0 50 35 85t85 35ZM240-560h360v-160H240v160Zm-40-86v446-560 114Z"/>
    </symbol>
    <symbol id="success" viewBox="0 -960 960 960">
        <path d="m437-398 227-226-57-57-170 170-85-85-56 56 141 142ZM40-120v-80h880v80H40Zm120-120q-33 0-56.5-23.5T80-320v-440q0-33 23.5-56.5T160-840h640q33 0 56.5 23.5T880-760v440q0 33-23.5 56.5T800-240H160Zm0-80h640v-440H160v440Zm0 0v-440 440Z"/>
    </symbol>
    <symbol id="done" viewBox="0 -960 960 960">
        <path d="m424-296 282-282-56-56-226 226-114-114-56 56 170 170Zm56 216q-83 0-156-31.5T197-197q-54-54-85.5-127T80-480q0-83 31.5-156T197-763q54-54 127-85.5T480-880q83 0 156 31.5T763-763q54 54 85.5 127T880-480q0 83-31.5 156T763-197q-54 54-127 85.5T480-80Zm0-80q134 0 227-93t93-227q0-134-93-227t-227-93q-134 0-227 93t-93 227q0 134 93 227t227 93Zm0-320Z"/>
    </symbol>
</svg>