<svg xmlns="http://www.w3.org/2000/svg">
    <symbol id="progress_activity" viewBox="0 -960 960 960">
        <path
            d="M480-80q-82 0-155-31.5t-127.5-86Q143-252 111.5-325T80-480q0-83 31.5-155.5t86-127Q252-817 325-848.5T480-880q17 0 28.5 11.5T520-840q0 17-11.5 28.5T480-800q-133 0-226.5 93.5T160-480q0 133 93.5 226.5T480-160q133 0 226.5-93.5T800-480q0-17 11.5-28.5T840-520q17 0 28.5 11.5T880-480q0 82-31.5 155t-86 127.5q-54.5 54.5-127 86T480-80Z" />
    </symbol>
    <symbol id="save" viewBox="0 -960 960 960">
        <path d="M840-680v480q0 33-23.5 56.5T760-120H200q-33 0-56.5-23.5T120-200v-560q0-33 23.5-56.5T200-840h480l160 160Zm-80 34L646-760H200v560h560v-446ZM480-240q50 0 85-35t35-85q0-50-35-85t-85-35q-50 0-85 35t-35 85q0 50 35 85t85 35ZM240-560h360v-160H240v160Zm-40-86v446-560 114Z"/>
    </symbol>
    <symbol id="check_circle" viewBox="0 -960 960 960">
        <path d="m424-296 282-282-56-56-226 226-114-114-56 56 170 170Zm56 216q-83 0-156-31.5T197-197q-54-54-85.5-127T80-480q0-83 31.5-156T197-763q54-54 127-85.5T480-880q83 0 156 31.5T763-763q54 54 85.5 127T880-480q0 83-31.5 156T763-197q-54 54-127 85.5T480-80Zm0-80q134 0 227-93t93-227q0-134-93-227t-227-93q-134 0-227 93t-93 227q0 134 93 227t227 93Zm0-320Z"/>
    </symbol>
    <symbol id="delete_history" viewBox="0 -960 960 960">
        <path d="m656-120-56-56 84-84-84-84 56-56 84 84 84-84 56 56-83 84 83 84-56 56-84-83-84 83Zm-176 0q-138 0-240.5-91.5T122-440h82q14 104 92.5 172T480-200q11 0 20.5-.5T520-203v81q-10 1-19.5 1.5t-20.5.5ZM120-560v-240h80v94q51-64 124.5-99T480-840q150 0 255 105t105 255h-80q0-117-81.5-198.5T480-760q-69 0-129 32t-101 88h110v80H120Zm414 190-94-94v-216h80v184l56 56-42 70Z"/>
    </symbol>
    <symbol id="top_panel_open" viewBox="0 -960 960 960">
        <path d="m480-300 160-160H320l160 160ZM200-120q-33 0-56.5-23.5T120-200v-560q0-33 23.5-56.5T200-840h560q33 0 56.5 23.5T840-760v560q0 33-23.5 56.5T760-120H200Zm560-520v-120H200v120h560Zm-560 80v360h560v-360H200Zm0-80v-120 120Z"/>
    </symbol>
    <symbol id="top_panel_closed" viewBox="0 -960 960 960">
        <path d="M480-460 320-300h320L480-460ZM200-120q-33 0-56.5-23.5T120-200v-560q0-33 23.5-56.5T200-840h560q33 0 56.5 23.5T840-760v560q0 33-23.5 56.5T760-120H200Zm560-520v-120H200v120h560Zm-560 80v360h560v-360H200Zm0-80v-120 120Z"/>
    </symbol>
    <symbol id="add" viewBox="0 -960 960 960">
        <path d="M440-440H200v-80h240v-240h80v240h240v80H520v240h-80v-240Z"/>
    </symbol>
    <symbol id="download" viewBox="0 -960 960 960">
        <path d="M480-320 280-520l56-58 104 104v-326h80v326l104-104 56 58-200 200ZM240-160q-33 0-56.5-23.5T160-240v-120h80v120h480v-120h80v120q0 33-23.5 56.5T720-160H240Z"/>
    </symbol>
    <symbol id="file_open" viewBox="0 -960 960 960">
        <path d="M240-80q-33 0-56.5-23.5T160-160v-640q0-33 23.5-56.5T240-880h320l240 240v240h-80v-200H520v-200H240v640h360v80H240Zm638 15L760-183v89h-80v-226h226v80h-90l118 118-56 57Zm-638-95v-640 640Z"/>
    </symbol>
    <symbol id="edit_note" viewBox="0 -960 960 960">
        <path d="M160-400v-80h280v80H160Zm0-160v-80h440v80H160Zm0-160v-80h440v80H160Zm360 560v-123l221-220q9-9 20-13t22-4q12 0 23 4.5t20 13.5l37 37q8 9 12.5 20t4.5 22q0 11-4 22.5T863-380L643-160H520Zm300-263-37-37 37 37ZM580-220h38l121-122-18-19-19-18-122 121v38Zm141-141-19-18 37 37-18-19Z"/>
    </symbol>
    <symbol id="delete" viewBox="0 -960 960 960">
        <path d="M280-120q-33 0-56.5-23.5T200-200v-520h-40v-80h200v-40h240v40h200v80h-40v520q0 33-23.5 56.5T680-120H280Zm400-600H280v520h400v-520ZM360-280h80v-360h-80v360Zm160 0h80v-360h-80v360ZM280-720v520-520Z"/>
    </symbol>
    <symbol id="content_copy" viewBox="0 -960 960 960">
        <path d="M360-240q-33 0-56.5-23.5T280-320v-480q0-33 23.5-56.5T360-880h360q33 0 56.5 23.5T800-800v480q0 33-23.5 56.5T720-240H360Zm0-80h360v-480H360v480ZM200-80q-33 0-56.5-23.5T120-160v-560h80v560h440v80H200Zm160-240v-480 480Z"/>
    </symbol>
    <symbol id="file_upload" viewBox="0 -960 960 960">
        <path d="M440-200h80v-167l64 64 56-57-160-160-160 160 57 56 63-63v167ZM240-80q-33 0-56.5-23.5T160-160v-640q0-33 23.5-56.5T240-880h320l240 240v480q0 33-23.5 56.5T720-80H240Zm280-520v-200H240v640h480v-440H520ZM240-800v200-200 640-640Z"/>
    </symbol>
    <symbol id="table" viewBox="0 -960 960 960">
        <path d="M200-120q-33 0-56.5-23.5T120-200v-560q0-33 23.5-56.5T200-840h560q33 0 56.5 23.5T840-760v560q0 33-23.5 56.5T760-120H200Zm240-240H200v160h240v-160Zm80 0v160h240v-160H520Zm-80-80v-160H200v160h240Zm80 0h240v-160H520v160ZM200-680h560v-80H200v80Z"/>
    </symbol>
    <symbol id="encrypted" viewBox="0 -960 960 960">
        <path d="M420-360h120l-23-129q20-10 31.5-29t11.5-42q0-33-23.5-56.5T480-640q-33 0-56.5 23.5T400-560q0 23 11.5 42t31.5 29l-23 129Zm60 280q-139-35-229.5-159.5T160-516v-244l320-120 320 120v244q0 152-90.5 276.5T480-80Zm0-84q104-33 172-132t68-220v-189l-240-90-240 90v189q0 121 68 220t172 132Zm0-316Z"/>
    </symbol>
    <symbol id="lock" viewBox="0 -960 960 960">
        <path d="M240-80q-33 0-56.5-23.5T160-160v-400q0-33 23.5-56.5T240-640h40v-80q0-83 58.5-141.5T480-920q83 0 141.5 58.5T680-720v80h40q33 0 56.5 23.5T800-560v400q0 33-23.5 56.5T720-80H240Zm0-80h480v-400H240v400Zm240-120q33 0 56.5-23.5T560-360q0-33-23.5-56.5T480-440q-33 0-56.5 23.5T400-360q0 33 23.5 56.5T480-280ZM360-640h240v-80q0-50-35-85t-85-35q-50 0-85 35t-35 85v80ZM240-160v-400 400Z"/>
    </symbol>
    <symbol id="no_encryption" viewBox="0 -960 960 960">
        <path d="m800-274-80-80v-206H514l-80-80h166v-80q0-50-34.5-85T481-840q-50 0-84 34.5T363-720v9l-73-73q22-61 75-98.5T481-920q83 0 141 58.5T680-720v80h40q33 0 56.5 23.5T800-560v286Zm20 246-62-62q-11 5-20 7.5T720-80H240q-33 0-56.5-23.5T160-160v-400q0-25 14.5-46t37.5-30L28-820l56-56L876-84l-56 56ZM686-160 539-309q-11 11-25.5 17t-31.5 6q-33 0-56.5-23.5T402-366q0-17 6-31.5t17-25.5L286-560h-46v400h446ZM486-360Zm131-97Z"/>
    </symbol>
    <symbol id="fullscreen" viewBox="0 -960 960 960">
        <path d="M120-120v-200h80v120h120v80H120Zm520 0v-80h120v-120h80v200H640ZM120-640v-200h200v80H200v120h-80Zm640 0v-120H640v-80h200v200h-80Z"/>
    </symbol>
</svg>
